<?xml version="1.0" encoding="utf-8"?>
<svg xmlns="http://www.w3.org/2000/svg" xmlns:xlink="http://www.w3.org/1999/xlink" version="1.1" id="Layer_1" x="0px" y="0px" width="256px" height="256px" viewBox="0 0 256 256" style="enable-background:new 0 0 256 256;" xml:space="preserve">
<style type="text/css">
	.st0{fill:none;stroke:#ffffff;stroke-width:10;stroke-linecap:round;stroke-linejoin:round;stroke-miterlimit:10;}
</style>
<path class="st0" d="M90.122,111.336c4.814,10.698,40.475,41.901,43.863,42.08s58.662-49.39,57.057-52.778  S79.246,96.18,76.214,99.568c-3.031,3.388-1.962,78.097,0.713,80.237s111.083,2.318,113.401-1.426  c2.318-3.744,4.814-57.414,1.783-60.623" style="fill: none; stroke: #ffffff; stroke-linecap: round; stroke-linejoin: round; stroke-miterlimit: 10; stroke-width:10;"/>
<path class="st0" d="M108.268,237.352c59.036,15.089,118.653-21.832,130.648-77.676c11.711-54.524-25.236-108.671-78.551-121.912  C106.315,24.34,48.002,56.183,33.321,110.176c-22.447,84.527,54.151,122.097,57.994,122.09" style="fill: none; stroke: #ffffff; stroke-linecap: round; stroke-linejoin: round; stroke-miterlimit: 10; stroke-width:10;"/>

	
	<metadata>
		<rdf:RDF xmlns:rdf="http://www.w3.org/1999/02/22-rdf-syntax-ns#" xmlns:rdfs="http://www.w3.org/2000/01/rdf-schema#" xmlns:dc="http://purl.org/dc/elements/1.1/">
			<rdf:Description about="https://iconscout.com/legal#licenses" dc:title="Mail, E-mail, Email, Send, Message" dc:description="Mail, E-mail, Email, Send, Message" dc:publisher="Iconscout" dc:date="2016-12-14" dc:format="image/svg+xml" dc:language="en">
				<dc:creator>
					<rdf:Bag>
						<rdf:li>Adi Sînchetru</rdf:li>
					</rdf:Bag>
				</dc:creator>
			</rdf:Description>
		</rdf:RDF>
    </metadata></svg>
